HIERARCHY
ROOT Hips
{
    OFFSET 0.000000 0.000000 0.000000
    CHANNELS 6 Xposition Yposition Zposition Zrotation Xrotation Yrotation
    JOINT Spine
    {
        OFFSET -0.000000 14.517291 0.000000
        CHANNELS 3 Zrotation Xrotation Yrotation
        JOINT Spine1
        {
            OFFSET -0.000000 37.558300 0.000000
            CHANNELS 3 Zrotation Xrotation Yrotation
            JOINT Neck
            {
                OFFSET -0.000000 37.404057 3.400369
                CHANNELS 3 Zrotation Xrotation Yrotation
                JOINT Head
                {
                    OFFSET -0.000000 24.785618 -3.540803
                    CHANNELS 3 Zrotation Xrotation Yrotation
                    End Site
                    {
                        OFFSET -0.000000 35.408028 0.000000
                    }
                }
            }
            JOINT LeftShoulder
            {
                OFFSET 6.992933 33.973492 -0.192664
                CHANNELS 3 Zrotation Xrotation Yrotation
                JOINT LeftArm
                {
                    OFFSET 21.527611 0.000000 0.000000
                    CHANNELS 3 Zrotation Xrotation Yrotation
                    JOINT LeftForeArm
                    {
                        OFFSET 56.353916 0.000000 0.000000
                        CHANNELS 3 Zrotation Xrotation Yrotation
                        JOINT LeftHand
                        {
                            OFFSET 47.774071 0.000000 0.000000
                            CHANNELS 3 Zrotation Xrotation Yrotation
                            End Site
                            {
                                OFFSET 26.556021 0.000000 0.000000
                            }
                        }
                    }
                }
            }
            JOINT RightShoulder
            {
                OFFSET -7.065357 33.973492 -0.192664
                CHANNELS 3 Zrotation Xrotation Yrotation
                JOINT RightArm
                {
                    OFFSET -21.527611 0.000000 0.000000
                    CHANNELS 3 Zrotation Xrotation Yrotation
                    JOINT RightForeArm
                    {
                        OFFSET -56.353916 0.000000 0.000000
                        CHANNELS 3 Zrotation Xrotation Yrotation
                        JOINT RightHand
                        {
                            OFFSET -47.774071 0.000000 0.000000
                            CHANNELS 3 Zrotation Xrotation Yrotation
                            End Site
                            {
                                OFFSET -26.556021 0.000000 0.000000
                            }
                        }
                    }
                }
            }
        }
    }
    JOINT LeftUpLeg
    {
        OFFSET 17.704014 0.000000 0.000000
        CHANNELS 3 Zrotation Xrotation Yrotation
        JOINT LeftLeg
        {
            OFFSET -0.000000 -81.181816 0.000000
            CHANNELS 3 Zrotation Xrotation Yrotation
            JOINT LeftFoot
            {
                OFFSET -0.000000 -62.821102 0.000000
                CHANNELS 3 Zrotation Xrotation Yrotation
                JOINT LeftToeBase
                {
                    OFFSET -0.000000 -11.507608 26.556021
                    CHANNELS 3 Zrotation Xrotation Yrotation
                    End Site
                    {
                        OFFSET -0.000000 0.000000 7.081605
                    }
                }
            }
        }
    }
    JOINT RightUpLeg
    {
        OFFSET -17.704014 0.000000 0.000000
        CHANNELS 3 Zrotation Xrotation Yrotation
        JOINT RightLeg
        {
            OFFSET -0.000000 -81.181816 0.000000
            CHANNELS 3 Zrotation Xrotation Yrotation
            JOINT RightFoot
            {
                OFFSET -0.000000 -62.821102 0.000000
                CHANNELS 3 Zrotation Xrotation Yrotation
                JOINT RightToeBase
                {
                    OFFSET -0.000000 -11.507608 26.556021
                    CHANNELS 3 Zrotation Xrotation Yrotation
                    End Site
                    {
                        OFFSET -0.000000 0.000000 7.081605
                    }
                }
            }
        }
    }
}
MOTION
Frames:    11
Frame Time:    0.008333
-20.809790    166.323318    -20.989597    -10.242568    -21.531256    42.441521    3.074414    3.898430    -8.760538    0.003203    7.415920    -2.888042    31.245686    6.220007    1.015456    -7.358996    -5.995768    -3.344775    14.879591    9.183510    -25.941507    -32.670391    12.243520    -51.796333    0.025056    -36.060535    -101.582291    -12.931391    -34.400467    -17.526451    9.600216    -1.270730    -14.324204    20.286850    -4.527958    19.983707    3.816247    13.214109    65.232849    -26.364475    8.862942    8.479353    24.912191    -1.567142    7.429946    -3.603199    33.224880    -17.857553    7.239265    -17.975922    29.930059    0.000000    0.000000    0.000000    -92.420265    -45.196259    -55.989830    7.756577    19.881872    -6.291912    15.108257    20.381268    -22.432962    0.000000    0.000000    0.000000    
-20.903788    166.296646    -21.000967    -10.189637    -21.645226    42.487793    3.058193    3.961486    -8.729971    0.080588    7.506654    -2.882608    31.063532    6.078970    0.999757    -7.158190    -5.850950    -3.335724    14.784375    9.155850    -25.902967    -32.608429    12.298100    -51.752087    0.098750    -36.191437    -101.530945    -12.905460    -34.463303    -17.523895    9.689551    -1.108452    -14.099185    20.288145    -4.942681    21.584776    3.447562    12.737727    64.517151    -26.793383    8.758594    7.851316    24.993473    -1.514825    7.504993    -3.559649    33.274372    -17.991808    7.297239    -17.998838    29.925352    0.000000    0.000000    0.000000    -92.221016    -45.208660    -55.757915    7.741414    19.788010    -6.372550    15.033135    20.414242    -22.295530    0.000000    0.000000    0.000000    
-21.007404    166.265625    -21.019081    -10.144245    -21.735527    42.526222    3.049976    3.997820    -8.698919    0.114166    7.613025    -2.874334    30.899033    5.965961    0.984985    -6.956181    -5.758024    -3.322370    14.757792    9.203508    -25.790787    -32.532791    12.302213    -51.847095    0.168647    -36.301968    -101.446220    -12.966986    -34.484783    -17.661917    9.790572    -0.851643    -13.917990    20.330637    -5.427464    23.236498    3.072192    12.266344    63.832176    -27.114029    8.682860    7.163520    25.054968    -1.494574    7.547076    -3.513723    33.341724    -18.124926    7.336199    -18.026453    29.949436    0.000000    0.000000    0.000000    -92.100708    -45.246044    -55.787769    7.672309    19.784698    -6.230480    14.963814    20.432640    -22.206732    0.000000    0.000000    0.000000    
-21.113253    166.233063    -21.041616    -10.118134    -21.822536    42.549816    3.077340    4.041886    -8.652719    0.126714    7.681127    -2.859128    30.725109    5.859433    0.954993    -6.736279    -5.672570    -3.318935    14.696099    9.102711    -25.747707    -32.581161    12.379845    -51.793789    0.195006    -36.313179    -101.379196    -13.053508    -34.451767    -17.734222    9.822379    -0.777802    -13.570633    20.027643    -6.081450    23.368526    2.175690    14.224382    63.038048    -21.444086    6.969006    31.137550    25.118402    -1.496927    7.551897    -3.481791    33.429264    -18.225075    7.363443    -18.068319    29.997269    0.000000    0.000000    0.000000    -91.979630    -45.295174    -55.691120    7.637144    19.764681    -6.213815    14.884702    20.448666    -22.083817    0.000000    0.000000    0.000000    
-21.216702    166.208679    -21.063036    -10.109796    -21.933283    42.573647    3.145833    4.106488    -8.608371    0.138147    7.719165    -2.843846    30.586739    5.807249    0.908423    -6.592566    -5.660176    -3.339626    14.571150    9.160998    -25.702085    -32.581551    12.208570    -51.814747    0.034379    -36.104069    -101.402603    -12.961056    -34.418346    -17.666140    9.836492    -0.612096    -13.257008    20.062029    -6.387482    24.612028    1.905856    13.640230    62.714001    -21.413553    6.650261    30.652765    25.208128    -1.495964    7.500799    -3.470043    33.531212    -18.279816    7.219921    -18.166988    30.044498    0.000000    0.000000    0.000000    -91.820976    -45.331322    -55.568924    7.622369    19.742388    -6.185409    14.812925    20.462725    -21.993252    0.000000    0.000000    0.000000    
-21.318277    166.194443    -21.088589    -10.109855    -22.039053    42.585285    3.228791    4.170663    -8.545610    0.138636    7.740308    -2.821450    30.424524    5.745353    0.848847    -6.414457    -5.639566    -3.366983    14.473001    9.162397    -25.696980    -32.318230    12.502563    -51.887772    0.291827    -36.579247    -101.239075    -12.998729    -34.642063    -17.655691    9.867334    -0.390234    -12.964779    20.115328    -6.685902    25.827221    1.540103    12.908319    62.389275    -21.232407    6.190297    30.610037    25.294481    -1.504664    7.436003    -3.472335    33.600800    -18.292221    7.460861    -18.115633    30.091808    0.000000    0.000000    0.000000    -91.660515    -45.382275    -55.428688    7.598496    19.722944    -6.209271    14.734015    20.489332    -21.837019    0.000000    0.000000    0.000000    
-21.431864    166.182114    -21.115286    -10.125962    -22.121201    42.578579    3.295350    4.219854    -8.471731    0.135606    7.762073    -2.795414    30.302292    5.671613    0.794227    -6.268813    -5.617991    -3.402695    14.405616    9.142220    -25.690275    -32.352791    12.530433    -51.909176    0.267488    -36.561539    -101.221733    -12.962283    -34.654324    -17.643213    9.899833    -0.257677    -12.642609    20.122669    -6.837704    26.930195    1.047007    12.124100    62.071556    -21.011961    5.726081    30.752825    25.379469    -1.522049    7.357105    -3.501206    33.674007    -18.262690    7.311970    -18.180309    30.129963    0.000000    0.000000    0.000000    -91.540459    -45.427017    -55.328247    7.567700    19.738028    -6.174679    14.558578    20.443762    -21.503506    0.000000    0.000000    0.000000    
-21.545467    166.176102    -21.140930    -10.147350    -22.183605    42.573105    3.351287    4.252276    -8.382710    0.133623    7.787217    -2.764632    30.148676    5.548610    0.727813    -6.079790    -5.553850    -3.450571    14.361300    9.181479    -25.636612    -32.325294    12.584072    -52.071579    0.284686    -36.606388    -101.153770    -12.946611    -34.684204    -17.655916    9.930377    -0.157450    -12.390380    20.203783    -7.307791    28.078997    0.927379    11.710776    61.715485    -21.014481    5.342984    30.940605    25.453772    -1.553435    7.290515    -3.521281    33.723408    -18.233875    7.342550    -18.182175    30.157713    0.000000    0.000000    0.000000    -91.456459    -45.489582    -55.238480    7.565160    19.747322    -6.189364    14.511788    20.449539    -21.406757    0.000000    0.000000    0.000000    
-21.662521    166.173431    -21.167946    -10.182240    -22.231388    42.563766    3.422377    4.277506    -8.297445    0.090164    7.787862    -2.732143    30.065929    5.472407    0.654741    -5.938107    -5.539760    -3.511254    14.294199    9.138146    -25.715309    -32.359386    12.657827    -52.024677    0.288793    -36.622612    -101.177696    -12.914085    -34.700829    -17.657331    9.998842    -0.094819    -12.113388    20.180002    -7.349984    29.088045    0.426407    10.858052    61.528702    -20.760818    4.852674    30.919510    25.517912    -1.606494    7.258348    -3.493369    33.755615    -18.219879    7.547777    -18.104509    30.143724    0.000000    0.000000    0.000000    -91.399101    -45.547005    -55.168179    7.579647    19.758499    -6.215548    14.472544    20.470274    -21.333443    0.000000    0.000000    0.000000    
-21.776646    166.181473    -21.188778    -10.222646    -22.274975    42.562901    3.482827    4.302889    -8.220026    0.084445    7.766886    -2.704926    29.932428    5.374446    0.577163    -5.772069    -5.468975    -3.569722    14.238087    9.241044    -25.666838    -32.296700    12.733571    -52.229111    0.349804    -36.718616    -101.104713    -12.892453    -34.742138    -17.648628    10.050871    0.048562    -11.887947    20.215347    -7.540569    30.160831    0.070896    10.096473    61.337631    -20.613129    4.336368    30.907127    25.589264    -1.664041    7.221367    -3.488695    33.795071    -18.203751    7.551338    -18.083956    30.148872    0.000000    0.000000    0.000000    -91.340103    -45.546318    -55.081669    7.548761    19.796701    -6.259364    15.017782    20.316532    -21.310795    0.000000    0.000000    0.000000    
-21.891224    166.197845    -21.206030    -10.271277    -22.322035    42.559586    3.558095    4.334514    -8.140511    0.045310    7.737130    -2.674512    29.862741    5.262681    0.501959    -5.644419    -5.379032    -3.642750    14.215902    9.295338    -25.672493    -32.335190    12.771749    -52.355862    0.320834    -36.708748    -101.112694    -12.975752    -34.749699    -17.653889    10.115074    0.104560    -11.662440    20.168215    -7.302648    31.140881    -0.627879    8.969121    61.189327    -20.357605    3.686658    30.879393    25.661785    -1.722262    7.212323    -3.436875    33.824558    -18.219576    7.519626    -18.064396    30.138821    0.000000    0.000000    0.000000    -91.280991    -45.586353    -55.010799    7.574529    19.825274    -6.286897    14.981787    20.307770    -21.261881    0.000000    0.000000    0.000000    
